# xmcd
#
# Track frame offsets:
#	150
#	14111
#	29017
#	47293
#	62842
#	75977
#	89112
#	105112
#	119205
#	134231
#	147461
#	162154
#	178169
#	194450
#	209248
#	225452
#	243017
#	254949
#	275427
#
# Disc length: 3862 seconds
#
# Revision: 1
# Processed by: cddbd v1.5.2PL0 Copyright (c) Steve Scherf et al.
# Submitted via: audiograbber 1.83.01
#
DISCID=270f1413
DTITLE=Various Artist - Promo Only Country Radio 2012 - 08
DYEAR=2012
DGENRE=Country
TTITLE0=Andy Gibson - Summer Back
TTITLE1=Miranda Lambert - Fastest Girl In Town (Promo Only Clean Edit)
TTITLE2=Big and Rich - That's Why I Pray
TTITLE3=Carrie Underwood - Good Girl
TTITLE4=Zac Brown Band - The Wind
TTITLE5=Hank Williams Jr. - That Ain't Good
TTITLE6=Trace Adkins - Them Lips (On Mine)
TTITLE7=Sawyer Brown - Ain't Going Out That Way
TTITLE8=Craig Morgan - Corn Star
TTITLE9=Maggie Rose - I Ain't Your Mama
TTITLE10=Tommy Steele - My Side Of The Street
TTITLE11=Matt Gary - City Lights
TTITLE12=Katie Aminger - Better In A Black Dress
TTITLE13=John Colbert - Latino Sweet
TTITLE14=Parmalee - Musta Had A Good Time
TTITLE15=Barefoot - Feel Free
TTITLE16=Kelly Hogan - Dusty Groove
TTITLE17=Randy Travis - More Life (featuring Don Henley)
TTITLE18=Scarletta - Right Here, Right Now
EXTD=
EXTT0=
EXTT1=
EXTT2=
EXTT3=
EXTT4=
EXTT5=
EXTT6=
EXTT7=
EXTT8=
EXTT9=
EXTT10=
EXTT11=
EXTT12=
EXTT13=
EXTT14=
EXTT15=
EXTT16=
EXTT17=
EXTT18=
PLAYORDER=
